<?xml version="1.0" encoding="iso-8859-1"?>
<!-- Generator: Adobe Illustrator 16.0.4, SVG Export Plug-In . SVG Version: 6.00 Build 0)  -->
<!DOCTYPE svg PUBLIC "-//W3C//DTD SVG 1.1//EN" "http://www.w3.org/Graphics/SVG/1.1/DTD/svg11.dtd">
<svg version="1.1" id="Capa_1" xmlns="http://www.w3.org/2000/svg" xmlns:xlink="http://www.w3.org/1999/xlink" x="0px" y="0px"
	 width="64px" height="64px" viewBox="0 0 64 64" style="enable-background:new 0 0 64 64;" xml:space="preserve">
<path d="M52.043,15.919c-4.941,0-9.885,0-14.827,0c-7.437,0-14.874,0-22.31,0c-1.207,0-2.413,0-3.62,0c-0.545,0-1,0.455-1,1
	c0,5.959,0,11.917,0,17.876c0,3.484,0,6.971,0,10.455c0,0.545,0.455,1,1,1c4.942,0,9.885,0,14.827,0c7.437,0,14.874,0,22.31,0
	c1.207,0,2.413,0,3.62,0c0.274,0,0.478-0.103,0.635-0.245c0.023-0.017,0.048-0.031,0.069-0.051c0.02-0.021,0.034-0.046,0.051-0.069
	c0.143-0.157,0.245-0.36,0.245-0.635c0-5.959,0-11.917,0-17.876c0-3.485,0-6.97,0-10.455C53.043,16.374,52.588,15.919,52.043,15.919
	z M11,17h41v7h-0.957c0,3.598,0,7.196,0,10.795c0,3.151,0,6.304,0,9.455c-4.608,0-9.218,0-13.827,0c-7.437,0-14.874,0-22.31,0
	c-0.873,0-1.747,0-2.62,0c0-5.625,0-11.25,0-16.876c0-1.125,0-2.25,0-3.374H11V17z"/>
<path d="M51.043,24H52v-7H11v7h1.286H51.043z M19,21.5c-1.333,0-2.667,0-4,0c-0.645,0-0.645-1,0-1c1.333,0,2.667,0,4,0
	C19.645,20.5,19.645,21.5,19,21.5z M19,19.5c-1.333,0-2.667,0-4,0c-0.645,0-0.645-1,0-1c1.333,0,2.667,0,4,0
	C19.645,18.5,19.645,19.5,19,19.5z M48.625,21C43.083,21,37.542,21,32,21c-1.29,0-1.29-2,0-2c5.542,0,11.083,0,16.625,0
	C49.915,19,49.915,21,48.625,21z"/>
<path d="M18.729,39.021c0.293-0.236,0.586-0.473,0.88-0.709c1.87-1.507,3.739-3.015,5.609-4.521
	c-0.199-0.279-0.338-0.597-0.423-0.937c-2.258,1.82-4.515,3.641-6.773,5.46C17.519,38.721,18.232,39.423,18.729,39.021z"/>
<path d="M39.002,37.902c2.825-2.391,5.65-4.779,8.477-7.169c0.494-0.417-0.217-1.121-0.707-0.707
	c-0.272,0.23-0.545,0.461-0.818,0.692c-2.434,2.058-4.867,4.116-7.3,6.174C38.837,37.186,38.955,37.527,39.002,37.902z"/>
<path d="M30.125,33.867c0.396,0.357,0.792,0.714,1.188,1.071c1.048,0.944,2.095,1.888,3.143,2.832
	c0.065-0.352,0.2-0.689,0.399-0.983c-0.804-0.725-1.607-1.45-2.412-2.175c-0.621-0.56-1.242-1.12-1.864-1.68
	C30.476,33.268,30.325,33.584,30.125,33.867z"/>
<path d="M25.218,33.791c0.56,0.785,1.51,1.294,2.501,1.33c1.01,0.037,1.865-0.488,2.406-1.254c0.2-0.283,0.351-0.6,0.454-0.935
	c0.083-0.268,0.143-0.542,0.153-0.825c-0.062-1.683-1.33-2.951-3.013-3.013c-1.682-0.062-2.955,1.423-3.013,3.013
	c-0.01,0.261,0.029,0.508,0.089,0.747C24.88,33.194,25.019,33.512,25.218,33.791z M26.206,32.108
	c-0.031-0.849,0.71-1.484,1.513-1.513c0.849-0.031,1.484,0.71,1.513,1.513C29.16,34.061,26.277,34.061,26.206,32.108z"/>
<path d="M38.653,36.892c-0.402-0.639-1.092-1.055-1.935-1.095c-0.792-0.038-1.453,0.384-1.864,0.99
	c-0.199,0.294-0.334,0.632-0.399,0.983c-0.021,0.111-0.042,0.224-0.047,0.337c-0.062,1.3,1.104,2.254,2.311,2.312
	c1.299,0.062,2.254-1.103,2.311-2.312c-0.003-0.071-0.02-0.137-0.027-0.205C38.955,37.527,38.837,37.186,38.653,36.892z
	 M35.408,38.107c-0.08-1.69,2.542-1.683,2.621,0C37.95,39.798,35.488,39.798,35.408,38.107z"/>
</svg>
