<?xml version="1.0" encoding="utf-8"?>
<!-- Generator: Adobe Illustrator 15.0.0, SVG Export Plug-In . SVG Version: 6.00 Build 0)  -->
<!DOCTYPE svg PUBLIC "-//W3C//DTD SVG 1.1//EN" "http://www.w3.org/Graphics/SVG/1.1/DTD/svg11.dtd">
<svg version="1.1" id="Layer_1" xmlns="http://www.w3.org/2000/svg" xmlns:xlink="http://www.w3.org/1999/xlink" x="0px" y="0px"
	 width="64px" height="64px" viewBox="0 0 64 64" enable-background="new 0 0 64 64" xml:space="preserve">
<g>
	<polygon fill="#020202" points="29.67,13.36 29.67,14.693 56.278,14.693 56.278,52.184 29.67,52.184 29.67,53.518 57.611,53.518 
		57.611,13.36 	"/>
	<polygon fill="#020202" points="53.94,16.489 29.912,16.489 29.912,17.556 52.833,17.556 52.833,47.606 29.661,47.606 
		29.661,48.673 53.94,48.673 	"/>
	<rect x="29.67" y="55.945" fill="#020202" width="7.669" height="2.612"/>
	<path fill="#020202" d="M6.389,59.337h21.757V4.663H6.389V59.337z M7.504,5.78h19.527v52.441H7.504V5.78z"/>
	<path fill="#020202" d="M17.267,38.341c-2.409,0-4.369,1.961-4.369,4.37s1.959,4.368,4.369,4.368c2.41,0,4.369-1.959,4.369-4.368
		S19.677,38.341,17.267,38.341z M17.267,45.964c-1.793,0-3.253-1.46-3.253-3.253s1.46-3.254,3.253-3.254s3.253,1.461,3.253,3.254
		S19.06,45.964,17.267,45.964z"/>
	<path fill="#020202" d="M9.597,12.213h15.9V7.609h-15.9V12.213z M10.712,8.726h13.669v2.37H10.712V8.726z"/>
	<path fill="#020202" d="M12.898,28.391h8.737v-3.904h-8.737V28.391z M14.014,25.602h6.507v1.674h-6.507V25.602z"/>
</g>
</svg>
