<?xml version="1.0" encoding="utf-8"?>
<!-- Generator: Adobe Illustrator 17.0.0, SVG Export Plug-In . SVG Version: 6.00 Build 0)  -->
<!DOCTYPE svg PUBLIC "-//W3C//DTD SVG 1.1//EN" "http://www.w3.org/Graphics/SVG/1.1/DTD/svg11.dtd">
<svg version="1.1" id="Capa_1" xmlns="http://www.w3.org/2000/svg" xmlns:xlink="http://www.w3.org/1999/xlink" x="0px" y="0px"
	 width="64px" height="64px" viewBox="0 0 64 64" enable-background="new 0 0 64 64" xml:space="preserve">
<g>
	<path d="M54.035,5.864C53.097,4.91,51.449,4.9,50.498,5.842L37.919,18.308c-0.541,0.536-1.137,1.441-1.417,2.153l-0.644,1.638
		c-0.413,1.048-0.154,2.408,0.614,3.233l3.762,4.037c0.557,0.599,1.448,0.971,2.325,0.971c0.299,0,0.586-0.043,0.853-0.126
		l1.717-0.531c0.751-0.234,1.706-0.8,2.271-1.345l12.936-12.486c0.482-0.466,0.753-1.091,0.761-1.76
		c0.009-0.669-0.246-1.301-0.716-1.778L54.035,5.864z M45.317,26.18c-0.229,0.221-0.773,0.543-1.077,0.638l-1.675,0.522H42.56
		c-0.047,0-0.109-0.018-0.126-0.018c-0.003,0-0.005,0.001-0.004,0.003l-3.734-4.003c-0.021-0.036-0.038-0.125-0.045-0.126
		l0.644-1.638c0.126-0.321,0.491-0.876,0.736-1.118L52.25,8.328l5.632,5.723L45.317,26.18z"/>
	<path d="M28.059,40.659l-2.032-2.154c-0.871-1.046-2.559-1.149-3.55-0.213l-7.765,7.327c-0.759-0.208-1.696,0.088-2.387,0.779
		l-0.836,0.836c-0.467,0.467-1.089,1.238-1.449,1.798l-3.417,5.316c-0.724,1.125-0.648,2.457,0.161,3.149
		c0.042,0.038,0.111,0.109,0.202,0.201c1.465,1.476,2.329,2.179,3.272,2.179c0.313,0,0.618-0.084,0.88-0.241l5.634-3.38
		c0.579-0.347,1.375-0.97,1.853-1.447l0.961-0.961c0.734-0.734,0.995-1.697,0.746-2.502l7.573-7.112
		C28.892,43.309,28.986,41.769,28.059,40.659z M18.06,49.365c-0.774,0.727-1.053,1.729-0.785,2.552l-0.771,0.771
		c-0.302,0.302-0.91,0.776-1.275,0.996l-4.972,2.982c-0.216-0.182-0.526-0.468-0.972-0.911l3.278-5.101
		c0.243-0.377,0.732-0.984,1.047-1.3l0.651-0.647c0.74,0.19,1.651-0.092,2.338-0.739l7.529-7.109l1.404,1.488L18.06,49.365z"/>
	<path d="M8.008,14.972c-1.475,0-1.701,1.699-1.775,2.259c-0.072,0.54-0.108,1.094-0.108,1.645c0,6.823,5.551,12.375,12.375,12.375
		c1.002,0,2.011-0.126,3.024-0.377c0.1,0,0.195,0.037,0.189,0.024c3.991,4.074,23.747,24.229,24.623,25.123
		c0.334,0.378,2.213,2.352,4.901,2.352c0,0,0,0,0,0c1.724,0,3.353-0.784,4.842-2.331c3.363-3.492,1.471-7.304-0.031-8.861
		L30.528,22.19c-0.032-0.052-0.058-0.185-0.048-0.241c0.262-1.012,0.395-2.046,0.395-3.074C30.875,12.052,25.324,6.5,18.5,6.5
		c-0.766,0-1.53,0.07-2.269,0.209c-0.954,0.177-1.6,0.527-1.92,1.043c-0.222,0.358-0.292,0.829-0.178,1.234
		c0.068,0.241,0.161,0.572,1.192,1.541l4.772,4.484c0.037,0.049,0.075,0.18,0.076,0.212l-1.121,4.407
		c-0.025,0.054-0.118,0.147-0.143,0.163l-4.414,1.125c-0.081,0-0.195-0.042-0.212-0.05l-4.38-4.665
		c-0.888-0.948-1.16-1.096-1.532-1.188C8.255,14.986,8.13,14.972,8.008,14.972z M12.096,22.921c0.736,0.786,2.066,1.182,3.119,0.91
		l4.437-1.131c1.061-0.27,2.027-1.237,2.299-2.299l1.13-4.437c0.271-1.059-0.111-2.369-0.907-3.117l-3.56-3.347
		c5.117,0.06,9.261,4.242,9.261,9.374c0,0.774-0.101,1.556-0.299,2.319c-0.281,1.079,0.057,2.357,0.822,3.104L53.919,49.29
		c0.23,0.239,2.185,2.4,0,4.67c-0.902,0.937-1.804,1.411-2.681,1.411h0c-1.488,0-2.644-1.326-2.648-1.332
		c-0.026-0.03-0.053-0.061-0.081-0.089c0,0-20.571-20.986-24.652-25.153c-0.566-0.578-1.438-0.924-2.333-0.924
		c-0.265,0-0.521,0.031-0.762,0.093c-0.747,0.189-1.507,0.284-2.262,0.284c-4.856,0-8.861-3.71-9.329-8.444L12.096,22.921z"/>
	<path d="M51.125,54.125c1.378,0,2.5-1.121,2.5-2.5s-1.122-2.5-2.5-2.5c-1.378,0-2.5,1.121-2.5,2.5S49.747,54.125,51.125,54.125z
		 M51.125,50.125c0.827,0,1.5,0.673,1.5,1.5s-0.673,1.5-1.5,1.5c-0.827,0-1.5-0.673-1.5-1.5S50.298,50.125,51.125,50.125z"/>
</g>
</svg>
