<?xml version="1.0" encoding="iso-8859-1"?>
<!-- Generator: Adobe Illustrator 17.0.0, SVG Export Plug-In . SVG Version: 6.00 Build 0)  -->
<!DOCTYPE svg PUBLIC "-//W3C//DTD SVG 1.1//EN" "http://www.w3.org/Graphics/SVG/1.1/DTD/svg11.dtd">
<svg version="1.1" id="Capa_1" xmlns="http://www.w3.org/2000/svg" xmlns:xlink="http://www.w3.org/1999/xlink" x="0px" y="0px"
	 width="64px" height="64px" viewBox="0 0 64 64" style="enable-background:new 0 0 64 64;" xml:space="preserve">
<g>
	<path d="M27.742,40.12c0.198,0,0.328-0.104,0.39-0.311c0.061-0.207,0.092-0.506,0.092-0.897c0-0.409-0.031-0.712-0.092-0.909
		c-0.062-0.197-0.192-0.295-0.39-0.295s-0.33,0.099-0.394,0.295c-0.064,0.197-0.096,0.5-0.096,0.909
		c0,0.391,0.032,0.689,0.096,0.897C27.412,40.016,27.544,40.12,27.742,40.12z"/>
	<path d="M22.403,37.708c-0.198,0-0.33,0.099-0.394,0.295c-0.064,0.197-0.096,0.5-0.096,0.909c0,0.391,0.032,0.689,0.096,0.897
		c0.064,0.207,0.196,0.311,0.394,0.311s0.328-0.104,0.39-0.311c0.061-0.207,0.092-0.506,0.092-0.897
		c0-0.409-0.031-0.712-0.092-0.909C22.731,37.807,22.602,37.708,22.403,37.708z"/>
	<path d="M30.376,44.676c-0.138,0-0.246,0.039-0.322,0.118c-0.076,0.079-0.124,0.185-0.144,0.319h0.929
		c-0.01-0.143-0.058-0.252-0.144-0.326C30.61,44.713,30.504,44.676,30.376,44.676z"/>
	<path d="M30.412,37.708c-0.198,0-0.33,0.099-0.394,0.295c-0.064,0.197-0.096,0.5-0.096,0.909c0,0.391,0.032,0.689,0.096,0.897
		c0.064,0.207,0.196,0.311,0.394,0.311s0.328-0.104,0.39-0.311c0.061-0.207,0.092-0.506,0.092-0.897
		c0-0.409-0.031-0.712-0.092-0.909C30.74,37.807,30.61,37.708,30.412,37.708z"/>
	<path d="M25.073,37.708c-0.198,0-0.33,0.099-0.394,0.295c-0.064,0.197-0.096,0.5-0.096,0.909c0,0.391,0.032,0.689,0.096,0.897
		c0.064,0.207,0.196,0.311,0.394,0.311s0.328-0.104,0.39-0.311c0.061-0.207,0.092-0.506,0.092-0.897
		c0-0.409-0.031-0.712-0.092-0.909C25.401,37.807,25.271,37.708,25.073,37.708z"/>
	<path d="M24.812,45.435l-0.123,0.023c-0.115,0.02-0.198,0.045-0.248,0.074c-0.085,0.049-0.127,0.125-0.127,0.229
		c0,0.092,0.026,0.159,0.078,0.2c0.052,0.041,0.115,0.062,0.19,0.062c0.118,0,0.226-0.034,0.326-0.102
		c0.099-0.068,0.151-0.192,0.155-0.373v-0.201c-0.034,0.021-0.069,0.039-0.105,0.052C24.922,45.411,24.873,45.423,24.812,45.435z"/>
	<path d="M14.397,40.12c0.198,0,0.328-0.104,0.39-0.311c0.061-0.207,0.092-0.506,0.092-0.897c0-0.409-0.031-0.712-0.092-0.909
		c-0.062-0.197-0.192-0.295-0.39-0.295s-0.33,0.099-0.394,0.295c-0.064,0.197-0.096,0.5-0.096,0.909
		c0,0.391,0.032,0.689,0.096,0.897C14.067,40.016,14.198,40.12,14.397,40.12z"/>
	<path d="M11.812,45.435l-0.123,0.023c-0.115,0.02-0.198,0.045-0.248,0.074c-0.085,0.049-0.127,0.125-0.127,0.229
		c0,0.092,0.026,0.159,0.078,0.2c0.052,0.041,0.115,0.062,0.19,0.062c0.118,0,0.226-0.034,0.326-0.102
		c0.099-0.068,0.151-0.192,0.155-0.373v-0.201c-0.034,0.021-0.069,0.039-0.105,0.052C11.922,45.411,11.873,45.423,11.812,45.435z"/>
	<path d="M17.376,44.676c-0.138,0-0.246,0.039-0.322,0.118c-0.076,0.079-0.124,0.185-0.144,0.319h0.929
		c-0.01-0.143-0.058-0.252-0.144-0.326C17.61,44.713,17.504,44.676,17.376,44.676z"/>
	<path d="M9.058,40.12c0.198,0,0.328-0.104,0.39-0.311c0.061-0.207,0.092-0.506,0.092-0.897c0-0.409-0.031-0.712-0.092-0.909
		c-0.062-0.197-0.192-0.295-0.39-0.295s-0.33,0.099-0.394,0.295c-0.064,0.197-0.096,0.5-0.096,0.909
		c0,0.391,0.032,0.689,0.096,0.897S8.86,40.12,9.058,40.12z"/>
	<path d="M11.728,37.708c-0.198,0-0.33,0.099-0.394,0.295c-0.064,0.197-0.096,0.5-0.096,0.909c0,0.391,0.032,0.689,0.096,0.897
		s0.196,0.311,0.394,0.311s0.328-0.104,0.39-0.311c0.061-0.207,0.092-0.506,0.092-0.897c0-0.409-0.031-0.712-0.092-0.909
		C12.055,37.807,11.926,37.708,11.728,37.708z"/>
	<path d="M17.066,40.12c0.198,0,0.328-0.104,0.39-0.311c0.061-0.207,0.092-0.506,0.092-0.897c0-0.409-0.031-0.712-0.092-0.909
		c-0.062-0.197-0.192-0.295-0.39-0.295s-0.33,0.099-0.394,0.295c-0.064,0.197-0.096,0.5-0.096,0.909
		c0,0.391,0.032,0.689,0.096,0.897C16.737,40.016,16.868,40.12,17.066,40.12z"/>
	<path d="M55.908,14.938H7.362c-2.063,0-3.742,1.7-3.742,3.79v28.234c0,2.09,1.679,3.79,3.742,3.79h31.725l-1-1l-1-1l-3.242-3.242
		c-0.781-0.781-0.781-2.047,0-2.828l4.574-4.574c0.391-0.391,0.902-0.586,1.414-0.586s1.024,0.195,1.414,0.586l3.393,3.393
		l9.621-9.621c0.375-0.375,0.884-0.586,1.414-0.586c0.53,0,1.039,0.211,1.414,0.586l0.559,0.559l1,1l1,1V18.728
		C59.649,16.638,57.971,14.938,55.908,14.938z M30.113,45.904c0.082,0.052,0.182,0.077,0.298,0.077c0.123,0,0.223-0.032,0.299-0.095
		c0.042-0.034,0.079-0.081,0.111-0.142h0.551c-0.014,0.122-0.081,0.247-0.2,0.373c-0.185,0.2-0.444,0.301-0.776,0.301
		c-0.275,0-0.517-0.085-0.727-0.254c-0.21-0.169-0.315-0.444-0.315-0.826c0-0.357,0.095-0.631,0.284-0.822
		c0.19-0.191,0.435-0.286,0.738-0.286c0.18,0,0.341,0.032,0.485,0.097c0.144,0.064,0.263,0.166,0.357,0.305
		c0.085,0.123,0.139,0.265,0.164,0.427c0.015,0.095,0.021,0.231,0.018,0.409h-1.503C29.906,45.676,29.978,45.821,30.113,45.904z
		 M31.322,40.209c-0.175,0.303-0.478,0.454-0.91,0.454c-0.433,0-0.736-0.151-0.911-0.454c-0.174-0.303-0.262-0.735-0.262-1.296
		c0-0.561,0.087-0.994,0.262-1.298c0.174-0.305,0.477-0.457,0.911-0.457c0.432,0,0.735,0.152,0.91,0.457
		c0.174,0.304,0.262,0.737,0.262,1.298C31.583,39.474,31.496,39.906,31.322,40.209z M28.427,44.842
		c-0.048-0.096-0.136-0.144-0.265-0.144c-0.149,0-0.252,0.062-0.309,0.185c-0.029,0.066-0.044,0.144-0.044,0.236v1.229h-0.543V45.12
		c0-0.122-0.013-0.211-0.038-0.267c-0.046-0.1-0.135-0.15-0.267-0.15c-0.154,0-0.257,0.05-0.31,0.15
		c-0.029,0.057-0.043,0.141-0.043,0.254v1.242h-0.547v-2.06h0.524v0.301c0.067-0.107,0.13-0.184,0.189-0.229
		c0.105-0.081,0.24-0.121,0.407-0.121c0.158,0,0.285,0.035,0.383,0.104c0.078,0.064,0.137,0.147,0.178,0.248
		c0.071-0.121,0.158-0.21,0.263-0.267c0.111-0.057,0.235-0.085,0.371-0.085c0.091,0,0.18,0.017,0.269,0.053
		c0.088,0.036,0.168,0.097,0.24,0.186c0.058,0.072,0.097,0.161,0.117,0.265c0.013,0.069,0.019,0.171,0.019,0.305l-0.004,1.3h-0.553
		v-1.314C28.465,44.957,28.452,44.893,28.427,44.842z M24.974,44.718c-0.06-0.032-0.147-0.048-0.262-0.048
		c-0.129,0-0.221,0.032-0.274,0.095c-0.038,0.047-0.064,0.11-0.077,0.189h-0.521c0.011-0.18,0.062-0.329,0.152-0.445
		c0.143-0.181,0.389-0.272,0.738-0.272c0.227,0,0.428,0.045,0.605,0.134c0.176,0.09,0.264,0.259,0.264,0.507v0.947
		c0,0.066,0.001,0.145,0.004,0.239c0.004,0.071,0.014,0.119,0.032,0.144c0.017,0.025,0.044,0.046,0.079,0.062v0.08h-0.587
		c-0.016-0.042-0.027-0.081-0.034-0.117c-0.006-0.037-0.011-0.078-0.015-0.125c-0.075,0.081-0.161,0.15-0.259,0.206
		c-0.117,0.067-0.249,0.1-0.396,0.1c-0.188,0-0.343-0.053-0.466-0.16c-0.122-0.107-0.184-0.258-0.184-0.453
		c0-0.254,0.098-0.437,0.295-0.551c0.108-0.062,0.267-0.106,0.477-0.132l0.185-0.023c0.1-0.012,0.172-0.028,0.215-0.047
		c0.077-0.033,0.116-0.084,0.116-0.153C25.063,44.809,25.034,44.75,24.974,44.718z M25.073,40.664c-0.433,0-0.736-0.151-0.911-0.454
		c-0.174-0.303-0.262-0.735-0.262-1.296c0-0.561,0.087-0.994,0.262-1.298c0.174-0.305,0.477-0.457,0.911-0.457
		c0.432,0,0.735,0.152,0.91,0.457c0.174,0.304,0.262,0.737,0.262,1.298c0,0.561-0.087,0.993-0.262,1.296
		C25.808,40.512,25.505,40.664,25.073,40.664z M26.57,38.913c0-0.561,0.087-0.994,0.262-1.298c0.174-0.305,0.477-0.457,0.911-0.457
		c0.432,0,0.735,0.152,0.91,0.457c0.174,0.304,0.262,0.737,0.262,1.298c0,0.561-0.087,0.993-0.262,1.296
		c-0.175,0.303-0.478,0.454-0.91,0.454c-0.433,0-0.736-0.151-0.911-0.454C26.657,39.906,26.57,39.474,26.57,38.913z M23.313,40.209
		c-0.174,0.303-0.478,0.454-0.91,0.454c-0.433,0-0.736-0.151-0.911-0.454c-0.174-0.303-0.262-0.735-0.262-1.296
		c0-0.561,0.087-0.994,0.262-1.298c0.174-0.305,0.477-0.457,0.911-0.457c0.432,0,0.735,0.152,0.91,0.457
		c0.174,0.304,0.262,0.737,0.262,1.298C23.575,39.474,23.488,39.906,23.313,40.209z M23.411,43.559v2.79h-0.583l-1.136-1.98v1.98
		h-0.543v-2.79h0.611l1.108,1.945v-1.945H23.411z M17.113,45.904c0.082,0.052,0.182,0.077,0.298,0.077
		c0.123,0,0.223-0.032,0.299-0.095c0.042-0.034,0.079-0.081,0.111-0.142h0.551c-0.014,0.122-0.081,0.247-0.2,0.373
		c-0.185,0.2-0.444,0.301-0.776,0.301c-0.275,0-0.517-0.085-0.727-0.254c-0.21-0.169-0.315-0.444-0.315-0.826
		c0-0.357,0.095-0.631,0.284-0.822c0.19-0.191,0.435-0.286,0.738-0.286c0.18,0,0.341,0.032,0.485,0.097
		c0.144,0.064,0.263,0.166,0.357,0.305c0.085,0.123,0.139,0.265,0.164,0.427c0.015,0.095,0.021,0.231,0.018,0.409h-1.503
		C16.906,45.676,16.978,45.821,17.113,45.904z M15.427,44.842c-0.048-0.096-0.136-0.144-0.265-0.144
		c-0.149,0-0.252,0.062-0.309,0.185c-0.029,0.066-0.044,0.144-0.044,0.236v1.229h-0.543V45.12c0-0.122-0.013-0.211-0.038-0.267
		c-0.046-0.1-0.135-0.15-0.267-0.15c-0.154,0-0.257,0.05-0.31,0.15c-0.029,0.057-0.043,0.141-0.043,0.254v1.242h-0.547v-2.06h0.524
		v0.301c0.067-0.107,0.13-0.184,0.189-0.229c0.105-0.081,0.24-0.121,0.407-0.121c0.158,0,0.285,0.035,0.383,0.104
		c0.078,0.064,0.137,0.147,0.178,0.248c0.071-0.121,0.158-0.21,0.263-0.267c0.111-0.057,0.235-0.085,0.371-0.085
		c0.091,0,0.18,0.017,0.269,0.053c0.088,0.036,0.168,0.097,0.24,0.186c0.058,0.072,0.097,0.161,0.117,0.265
		c0.013,0.069,0.019,0.171,0.019,0.305l-0.004,1.3h-0.553v-1.314C15.465,44.957,15.452,44.893,15.427,44.842z M11.974,44.718
		c-0.06-0.032-0.147-0.048-0.262-0.048c-0.129,0-0.221,0.032-0.274,0.095c-0.038,0.047-0.064,0.11-0.077,0.189h-0.521
		c0.011-0.18,0.062-0.329,0.152-0.445c0.143-0.181,0.389-0.272,0.738-0.272c0.227,0,0.428,0.045,0.605,0.134
		c0.176,0.09,0.264,0.259,0.264,0.507v0.947c0,0.066,0.001,0.145,0.004,0.239c0.004,0.071,0.014,0.119,0.032,0.144
		c0.017,0.025,0.044,0.046,0.079,0.062v0.08h-0.587c-0.016-0.042-0.027-0.081-0.034-0.117c-0.006-0.037-0.011-0.078-0.015-0.125
		c-0.075,0.081-0.161,0.15-0.259,0.206c-0.117,0.067-0.249,0.1-0.396,0.1c-0.188,0-0.343-0.053-0.466-0.16
		c-0.122-0.107-0.184-0.258-0.184-0.453c0-0.254,0.098-0.437,0.295-0.551c0.108-0.062,0.267-0.106,0.477-0.132l0.185-0.023
		c0.1-0.012,0.172-0.028,0.215-0.047c0.077-0.033,0.116-0.084,0.116-0.153C12.063,44.809,12.034,44.75,11.974,44.718z
		 M12.637,40.209c-0.174,0.303-0.477,0.454-0.91,0.454c-0.433,0-0.736-0.151-0.911-0.454c-0.174-0.303-0.262-0.735-0.262-1.296
		c0-0.561,0.087-0.994,0.262-1.298c0.175-0.305,0.478-0.457,0.911-0.457c0.432,0,0.735,0.152,0.91,0.457
		c0.174,0.304,0.262,0.737,0.262,1.298C12.899,39.474,12.812,39.906,12.637,40.209z M9.527,29.248v-1.991h2.01v2.036H9.532
		C9.532,29.278,9.527,29.264,9.527,29.248z M17.373,29.248c0,0.016-0.004,0.03-0.005,0.046h-2.005v-2.036h2.01V29.248z
		 M15.363,30.342h1.787c-0.325,0.763-0.984,1.341-1.787,1.58V30.342z M14.839,26.209v0.001h-0.525v3.084h-1.728v-5.09h1.986
		c1.266,0,2.326,0.85,2.672,2.005H14.839z M11.538,26.209H9.657c0.27-0.903,0.977-1.609,1.881-1.878V26.209z M11.538,30.342v1.58
		c-0.804-0.239-1.462-0.817-1.787-1.58H11.538z M12.586,30.342h1.728v1.708h-1.728V30.342z M14.397,37.158
		c0.432,0,0.735,0.152,0.91,0.457c0.174,0.304,0.262,0.737,0.262,1.298c0,0.561-0.087,0.993-0.262,1.296
		c-0.174,0.303-0.477,0.454-0.91,0.454c-0.433,0-0.736-0.151-0.911-0.454c-0.174-0.303-0.262-0.735-0.262-1.296
		c0-0.561,0.087-0.994,0.262-1.298C13.661,37.31,13.964,37.158,14.397,37.158z M9.058,37.158c0.432,0,0.735,0.152,0.91,0.457
		c0.174,0.304,0.262,0.737,0.262,1.298c0,0.561-0.087,0.993-0.262,1.296c-0.174,0.303-0.477,0.454-0.91,0.454
		c-0.433,0-0.736-0.151-0.911-0.454c-0.174-0.303-0.262-0.735-0.262-1.296c0-0.561,0.087-0.994,0.262-1.298
		C8.322,37.31,8.625,37.158,9.058,37.158z M8.149,43.559H8.76l1.108,1.945v-1.945h0.543v2.79H9.828l-1.136-1.98v1.98H8.149V43.559z
		 M15.894,38.913c0-0.561,0.087-0.994,0.262-1.298c0.175-0.305,0.478-0.457,0.911-0.457c0.432,0,0.735,0.152,0.91,0.457
		c0.174,0.304,0.262,0.737,0.262,1.298c0,0.561-0.087,0.993-0.262,1.296c-0.174,0.303-0.477,0.454-0.91,0.454
		c-0.433,0-0.736-0.151-0.911-0.454C15.981,39.906,15.894,39.474,15.894,38.913z M49.689,29.91c-0.79,0-1.531-0.194-2.2-0.515
		c-0.815,0.518-1.774,0.828-2.808,0.828c-2.903,0-5.264-2.361-5.264-5.264s2.361-5.264,5.264-5.264c0.9,0,1.734,0.248,2.476,0.647
		c0.75-0.43,1.607-0.696,2.532-0.696c2.83,0,5.132,2.302,5.132,5.132S52.519,29.91,49.689,29.91z"/>
	<path d="M57.649,43.297l-5.456,5.456l-1,1l-1,1h5.714c2.063,0,3.742-1.7,3.742-3.79v-5.666l-1,1L57.649,43.297z"/>
	<path d="M45.571,24.642h-0.5h-0.5c0.006-0.228,0.033-0.45,0.068-0.669h0.5h0.5h2.813c-0.052-0.276-0.133-0.541-0.234-0.796h-2.337
		h-0.522h-0.52c0.079-0.238,0.171-0.466,0.282-0.688h0.564h0.568h1.616c-0.175-0.287-0.372-0.556-0.605-0.796h-0.296h-0.712h-0.642
		c0.19-0.25,0.398-0.481,0.629-0.692c-0.485-0.192-1.01-0.306-1.563-0.306c-2.351,0-4.264,1.913-4.264,4.264
		s1.913,4.264,4.264,4.264c0.663,0,1.283-0.165,1.844-0.436c-0.181-0.144-0.361-0.287-0.522-0.454h0.751h0.049
		c0.124-0.097,0.218-0.225,0.331-0.333c0.156-0.151,0.326-0.289,0.46-0.463h-0.958h-0.647h-0.612
		c-0.126-0.196-0.236-0.402-0.334-0.615h0.565h0.568h1.813c0.136-0.253,0.245-0.518,0.331-0.796h-2.517H45.28h-0.521
		c-0.061-0.224-0.105-0.453-0.136-0.688h0.5h0.5h2.849c0.029-0.206,0.063-0.41,0.063-0.624c0-0.059-0.015-0.114-0.017-0.172H45.571z
		"/>
	<polygon points="60.25,37.868 59.649,37.267 58.649,36.267 57.649,35.267 55.676,33.293 44.641,44.328 39.834,39.522 
		35.259,44.096 39.916,48.752 40.916,49.752 41.916,50.752 44.641,53.477 44.666,53.451 44.666,53.451 47.365,50.752 48.365,49.752 
		49.365,48.752 57.649,40.468 58.649,39.468 59.649,38.468 	"/>
</g>
</svg>
