<?xml version="1.0" encoding="utf-8"?>
<!-- Generator: Adobe Illustrator 16.0.0, SVG Export Plug-In . SVG Version: 6.00 Build 0)  -->
<!DOCTYPE svg PUBLIC "-//W3C//DTD SVG 1.1//EN" "http://www.w3.org/Graphics/SVG/1.1/DTD/svg11.dtd">
<svg version="1.1" id="Layer_1" xmlns="http://www.w3.org/2000/svg" xmlns:xlink="http://www.w3.org/1999/xlink" x="0px" y="0px"
	 width="100px" height="100px" viewBox="0 0 100 100" enable-background="new 0 0 100 100" xml:space="preserve">
<path d="M60.824,45.52c0.64-0.528,1.006-1.3,1.006-2.116c0-1.517-1.233-2.75-2.75-2.75c-0.745,0-1.442,0.294-1.941,0.806
	L37.396,60.468c-0.598,0.524-0.94,1.275-0.94,2.061c0,1.517,1.233,2.75,2.75,2.75c0.799,0,1.553-0.35,2.08-0.962L60.824,45.52z
	 M39.782,62.996c-0.086,0.105-0.276,0.282-0.577,0.282c-0.413,0-0.75-0.337-0.75-0.75c0-0.287,0.162-0.472,0.293-0.588l19.8-19.063
	c0.142-0.145,0.33-0.225,0.532-0.225c0.413,0,0.75,0.337,0.75,0.75c0,0.299-0.175,0.488-0.336,0.625L39.861,62.911
	C39.834,62.938,39.808,62.967,39.782,62.996z"/>
<path d="M67.98,58.812c-1.361,0-2.698,0.217-3.98,0.646l-6.84-6.841l6.976-6.976c1.158,0.344,2.356,0.519,3.572,0.519
	c3.334,0,6.466-1.297,8.819-3.651c3.568-3.569,4.642-8.896,2.734-13.569c-0.126-0.31-0.399-0.536-0.729-0.603
	c-0.327-0.063-0.667,0.037-0.904,0.273l-5.771,5.77l-4.633-0.247l-0.248-4.634l5.771-5.77c0.237-0.236,0.34-0.576,0.273-0.904
	c-0.066-0.329-0.293-0.602-0.603-0.729c-1.506-0.615-3.098-0.927-4.731-0.927c-3.338,0-6.477,1.3-8.838,3.661
	c-3.493,3.492-4.584,8.604-2.868,13.193l-6.707,6.707l-7.242-7.242c1.291-4.363,0.095-9.165-3.133-12.392
	c-2.361-2.36-5.5-3.661-8.838-3.661c-1.634,0-3.226,0.313-4.731,0.927c-0.31,0.126-0.536,0.399-0.603,0.729
	c-0.066,0.328,0.036,0.668,0.273,0.904l5.77,5.771l-0.247,4.633l-4.634,0.248l-5.77-5.771c-0.236-0.236-0.575-0.337-0.904-0.273
	c-0.329,0.066-0.602,0.293-0.729,0.603c-1.907,4.674-0.834,10,2.734,13.569c2.355,2.355,5.488,3.652,8.822,3.652
	c1.507,0,2.974-0.264,4.371-0.784l6.974,6.974l-7.104,7.103c-1.283-0.428-2.62-0.646-3.978-0.646c-3.334,0-6.467,1.297-8.821,3.652
	c-3.568,3.567-4.641,8.894-2.732,13.568c0.127,0.31,0.399,0.536,0.729,0.603c0.329,0.063,0.668-0.037,0.904-0.273l5.769-5.77
	l4.634,0.247l0.247,4.634l-5.769,5.77c-0.237,0.236-0.34,0.576-0.273,0.904c0.066,0.329,0.293,0.602,0.603,0.729
	c1.506,0.615,3.098,0.927,4.731,0.927c3.338,0,6.476-1.301,8.836-3.661c3.357-3.355,4.502-8.313,3.003-12.794l7.106-7.106
	l6.837,6.837c-1.489,4.469-0.321,9.471,3.007,12.799c2.359,2.359,5.497,3.659,8.836,3.659c1.634,0,3.226-0.312,4.732-0.927
	c0.31-0.127,0.536-0.399,0.603-0.729c0.066-0.328-0.036-0.668-0.273-0.904l-5.77-5.769l0.247-4.634l4.634-0.247l5.77,5.769
	c0.237,0.237,0.577,0.337,0.904,0.273c0.329-0.066,0.602-0.293,0.729-0.603c1.908-4.674,0.835-10-2.734-13.567
	C74.442,60.107,71.313,58.812,67.98,58.812z M35.361,43.762c-0.191-0.191-0.447-0.293-0.707-0.293c-0.135,0-0.271,0.027-0.399,0.083
	c-1.333,0.582-2.75,0.876-4.211,0.876c-2.8,0-5.431-1.089-7.408-3.066c-2.626-2.627-3.644-6.387-2.778-9.918l4.934,4.934
	c0.2,0.201,0.463,0.31,0.761,0.292l5.977-0.32c0.51-0.027,0.918-0.436,0.945-0.946l0.318-5.975c0.015-0.283-0.091-0.56-0.292-0.76
	l-4.933-4.934c0.813-0.197,1.646-0.298,2.494-0.298c2.804,0,5.44,1.093,7.424,3.075c2.837,2.836,3.804,7.122,2.464,10.919
	c-0.128,0.363-0.036,0.768,0.236,1.04l7.675,7.675l-5.058,5.058L35.361,43.762z M40.079,67.719
	c1.536,3.897,0.621,8.321-2.329,11.271c-1.982,1.983-4.618,3.075-7.422,3.075c-0.848,0-1.682-0.1-2.494-0.298l4.932-4.933
	c0.201-0.2,0.307-0.477,0.292-0.76l-0.318-5.977c-0.027-0.511-0.436-0.919-0.946-0.946l-5.977-0.318
	c-0.28-0.012-0.56,0.091-0.76,0.292l-4.933,4.933c-0.866-3.531,0.15-7.291,2.776-9.917c1.978-1.978,4.607-3.066,7.407-3.066
	c1.201,0,2.384,0.202,3.518,0.603c0.049,0.017,0.096,0.039,0.144,0.06l0.203,0.085c0.37,0.142,0.786,0.054,1.066-0.227l8.27-8.27
	c0.001,0,0.001,0,0.002-0.001l6.472-6.472c0,0,0-0.001,0.001-0.001l7.881-7.881c0.291-0.291,0.374-0.729,0.21-1.106
	c-1.739-3.988-0.88-8.549,2.19-11.619c1.983-1.982,4.62-3.075,7.424-3.075c0.848,0,1.682,0.1,2.494,0.298L65.248,28.4
	c-0.201,0.2-0.307,0.478-0.292,0.761l0.32,5.977c0.027,0.51,0.436,0.918,0.946,0.945l5.975,0.318c0.282,0.019,0.56-0.091,0.76-0.292
	l4.935-4.934c0.865,3.532-0.152,7.292-2.778,9.919c-1.977,1.977-4.606,3.065-7.405,3.065c-1.202,0-2.384-0.202-3.514-0.602
	c-0.365-0.129-0.769-0.036-1.04,0.236L51.832,55.117l-3.266,3.265c0,0,0,0.001-0.001,0.001l-8.263,8.263
	C40.021,66.927,39.934,67.349,40.079,67.719z M78.158,73.792l-4.934-4.933c-0.201-0.201-0.479-0.305-0.76-0.292l-5.977,0.318
	c-0.511,0.027-0.919,0.436-0.946,0.946l-0.318,5.977c-0.015,0.283,0.092,0.56,0.292,0.76l4.933,4.932
	c-0.813,0.198-1.647,0.298-2.495,0.298c-2.805,0-5.439-1.092-7.422-3.073c-2.837-2.837-3.805-7.124-2.464-10.925
	c0.017-0.049,0.039-0.096,0.06-0.144l0.085-0.203c0.142-0.369,0.053-0.787-0.227-1.066l-7.298-7.298l2.549-2.549l2.51-2.509
	l7.29,7.291c0.282,0.281,0.705,0.371,1.073,0.224c1.236-0.487,2.539-0.734,3.871-0.734c2.797,0,5.425,1.088,7.399,3.063
	C78.007,66.501,79.023,70.26,78.158,73.792z"/>
</svg>
