<?xml version="1.0" encoding="utf-8"?>
<!-- Generator: Adobe Illustrator 16.0.0, SVG Export Plug-In . SVG Version: 6.00 Build 0)  -->
<!DOCTYPE svg PUBLIC "-//W3C//DTD SVG 1.1//EN" "http://www.w3.org/Graphics/SVG/1.1/DTD/svg11.dtd">
<svg version="1.1" id="Layer_7" xmlns="http://www.w3.org/2000/svg" xmlns:xlink="http://www.w3.org/1999/xlink" x="0px" y="0px"
	 width="80px" height="80px" fill="#fff" viewBox="0 0 100 100" enable-background="new 0 0 100 100" xml:space="preserve">
<path d="M45.655,34.813H7.967c-0.676,0-1.225,0.549-1.225,1.226v11.139c0,0.676,0.549,1.225,1.225,1.225h37.688
	c0.677,0,1.226-0.549,1.226-1.225V36.038C46.881,35.361,46.332,34.813,45.655,34.813z M26.812,44.51H10.725v-6.435h16.087V44.51z
	 M45.655,51.243H7.967c-0.676,0-1.225,0.549-1.225,1.226v11.139c0,0.678,0.549,1.226,1.225,1.226h37.688
	c0.677,0,1.226-0.548,1.226-1.226V52.469C46.881,51.792,46.332,51.243,45.655,51.243z M26.812,60.774H10.725v-6.434h16.087V60.774z
	 M45.655,67.517H7.967c-0.676,0-1.225,0.549-1.225,1.226V79.88c0,0.678,0.549,1.226,1.225,1.226h37.688
	c0.677,0,1.226-0.548,1.226-1.226V68.742C46.881,68.065,46.332,67.517,45.655,67.517z M26.812,77.529H10.725v-6.435h16.087V77.529z
	 M93.258,50.518c0,8.543-6.95,15.492-15.492,15.492H49.802c0.198-0.482,0.32-1.004,0.32-1.558v-1.713h27.644
	c6.739,0,12.223-5.482,12.223-12.222s-5.483-12.221-12.223-12.221c-0.634,0-1.303,0.061-2.045,0.186l-1.045,0.176l-0.588-0.883
	c-2.276-3.419-6.082-5.461-10.178-5.461c-0.41,0-0.828,0.021-1.238,0.063l-1.379,0.14l-0.363-1.338
	c-1.441-5.307-6.286-9.015-11.781-9.015c-6.15,0-11.239,4.572-12.084,10.493H33.76c0.863-7.73,7.432-13.763,15.389-13.763
	c6.519,0,12.313,4.111,14.531,10.151c4.941-0.062,9.549,2.189,12.523,6.068c0.539-0.059,1.057-0.088,1.563-0.088
	C86.308,35.026,93.258,41.976,93.258,50.518z"/>
</svg>
