<?xml version="1.0" encoding="iso-8859-1"?>
<!-- Generator: Adobe Illustrator 16.0.0, SVG Export Plug-In . SVG Version: 6.00 Build 0)  -->
<!DOCTYPE svg PUBLIC "-//W3C//DTD SVG 1.1//EN" "http://www.w3.org/Graphics/SVG/1.1/DTD/svg11.dtd">
<svg version="1.1" id="Layer_1" xmlns="http://www.w3.org/2000/svg" xmlns:xlink="http://www.w3.org/1999/xlink" x="0px" y="0px"
	 width="36px" height="36px" viewBox="0 0 36 36" style="enable-background:new 0 0 36 36;" xml:space="preserve">
<g>
	<path style="fill:#010101;" d="M25.229,23.905h-2.407v-1.678l2.44-1.984c0.456-0.37,0.525-1.039,0.155-1.494
		s-1.039-0.525-1.495-0.154l-3.225,2.622v2.689h-0.75v-4.218l5.2-3.187c0.496-0.304,0.655-0.948,0.36-1.447
		c-0.295-0.5-0.938-0.668-1.442-0.381l-9.774,5.583c-0.509,0.292-0.686,0.94-0.395,1.45c0.292,0.51,0.94,0.686,1.45,0.396
		l2.476-1.415v3.219h-3.216c-0.235,0-0.425,0.19-0.425,0.425l0.849,3.801c0,0.234,0.191,0.425,0.426,0.425h0.92
		c0,1.975,1.586,3.577,3.542,3.577c1.956,0,3.541-1.602,3.541-3.577h0.921c0.235,0,0.424-0.19,0.424-0.425l0.851-3.801
		C25.654,24.095,25.463,23.905,25.229,23.905z"/>
	<path style="fill:#010101;" d="M14.696,18.632l10.412-5.792c0.512-0.285,0.697-0.932,0.412-1.444
		c-0.285-0.513-0.932-0.697-1.444-0.412l-10.412,5.792c-0.514,0.285-0.698,0.932-0.413,1.445c0.194,0.35,0.556,0.546,0.93,0.546
		C14.355,18.766,14.533,18.723,14.696,18.632z"/>
	<path style="fill:#010101;" d="M14.181,15.445c0.174,0,0.352-0.043,0.515-0.135l10.412-5.792c0.512-0.286,0.697-0.932,0.412-1.445
		c-0.285-0.513-0.932-0.697-1.444-0.412l-10.412,5.792c-0.514,0.285-0.698,0.932-0.413,1.445
		C13.445,15.248,13.807,15.445,14.181,15.445z"/>
	<path style="fill:#010101;" d="M14.818,11.699c0.179,0,0.36-0.045,0.526-0.141l6.941-3.966c0.51-0.291,0.687-0.94,0.396-1.449
		c-0.292-0.51-0.943-0.686-1.45-0.396L14.29,9.714c-0.509,0.291-0.686,0.94-0.395,1.449C14.091,11.507,14.45,11.699,14.818,11.699z"
		/>
</g>
</svg>
