<?xml version="1.0" encoding="utf-8"?>
<!-- Generator: Adobe Illustrator 16.0.4, SVG Export Plug-In . SVG Version: 6.00 Build 0)  -->
<!DOCTYPE svg PUBLIC "-//W3C//DTD SVG 1.1//EN" "http://www.w3.org/Graphics/SVG/1.1/DTD/svg11.dtd">
<svg version="1.1" id="Layer_1" xmlns="http://www.w3.org/2000/svg" xmlns:xlink="http://www.w3.org/1999/xlink" x="0px" y="0px"
	 width="100px" height="100px" viewBox="0 0 100 100" enable-background="new 0 0 100 100" xml:space="preserve">
<g>
	<path d="M85.337,56.457l-4.883-24.72c-0.039-0.195-0.135-0.374-0.275-0.514L64.256,15.328c-0.14-0.14-0.317-0.235-0.511-0.273
		l-3.095-0.617l-3.668-6.322c-0.156-0.269-0.428-0.449-0.735-0.49C55.935,7.589,55.63,7.691,55.41,7.91L41.495,21.825
		c-0.253,0.253-0.352,0.622-0.259,0.967s0.363,0.615,0.708,0.707l7.908,2.104l2.148,3.103c0.092,0.132,0.214,0.24,0.355,0.315
		l8.633,4.555L48.019,46.545L36.938,35.464c1.854-5.402,0.464-11.475-3.566-15.506c-2.837-2.837-6.609-4.399-10.621-4.399
		c-1.964,0-3.878,0.375-5.689,1.114c-0.31,0.126-0.536,0.4-0.603,0.728c-0.066,0.329,0.037,0.668,0.273,0.905l7.104,7.106
		l-0.316,5.945l-5.945,0.317l-7.106-7.106c-0.237-0.237-0.576-0.338-0.905-0.273c-0.329,0.066-0.602,0.292-0.728,0.603
		c-2.292,5.62-1.002,12.022,3.285,16.309c2.826,2.828,6.589,4.386,10.595,4.386c0,0,0,0,0,0c1.676,0,3.316-0.29,4.902-0.834
		l11.092,11.093L18.929,75.634c-0.148,0.147-0.225,0.345-0.245,0.553c-1.191,2.15-0.826,4.884,0.936,6.643
		c1.053,1.054,2.454,1.634,3.943,1.634c0.928,0,1.83-0.228,2.638-0.662c0.233-0.02,0.455-0.12,0.624-0.289l0.616-0.622
		c0.025-0.021,0.05-0.044,0.073-0.067c0.003-0.003,0.005-0.006,0.008-0.009c0,0,8.489-8.509,19.051-19.1l8.015,8.015
		c-1.863,5.417-0.503,11.438,3.57,15.513c2.838,2.838,6.611,4.4,10.624,4.4c4.014,0,7.786-1.562,10.624-4.4
		c2.838-2.837,4.401-6.609,4.401-10.623c0-4.015-1.563-7.787-4.401-10.624c-2.838-2.838-6.61-4.4-10.624-4.4
		c-1.691,0-3.335,0.294-4.89,0.827l-8.025-8.027c4.359-4.373,8.754-8.781,12.817-12.858l9.796,19.263
		c0.134,0.263,0.376,0.453,0.662,0.521c0.076,0.018,0.153,0.026,0.229,0.026c0.213,0,0.422-0.067,0.596-0.196l4.983-3.694
		C85.262,57.224,85.411,56.836,85.337,56.457z M77.992,67.408c2.46,2.46,3.815,5.73,3.815,9.21c0,3.479-1.355,6.749-3.815,9.209
		s-5.73,3.814-9.21,3.814c-3.479,0-6.75-1.354-9.21-3.814c-3.629-3.63-4.782-9.044-2.962-13.838
		c0.034-0.057,0.062-0.117,0.085-0.182c0.032-0.093,0.072-0.184,0.112-0.275l0.077-0.185l0.023-0.052
		c0.659-1.47,1.557-2.778,2.665-3.888c2.46-2.46,5.73-3.814,9.209-3.814C72.262,63.594,75.532,64.948,77.992,67.408z M58.339,65.523
		c-1.209,1.208-2.195,2.625-2.929,4.199l-7.277-7.276l6.469-6.489l7.063,7.064C60.44,63.698,59.326,64.536,58.339,65.523z
		 M22.716,43.593c-3.471,0-6.731-1.35-9.18-3.8c-3.35-3.349-4.588-8.187-3.347-12.676l6.287,6.287
		c0.201,0.201,0.48,0.313,0.76,0.292l7.288-0.389c0.511-0.027,0.918-0.435,0.945-0.945l0.388-7.288
		c0.015-0.283-0.091-0.56-0.292-0.76l-6.286-6.287c1.125-0.311,2.287-0.467,3.47-0.467c3.478,0,6.747,1.354,9.207,3.813
		c3.518,3.52,4.718,8.836,3.055,13.553c-0.024,0.07-0.055,0.138-0.084,0.206l-0.09,0.215c-0.668,1.708-1.637,3.204-2.881,4.446
		c-0.729,0.729-1.549,1.354-2.436,1.892c-0.506,0.307-1.029,0.593-1.584,0.834c-0.077,0.035-0.157,0.065-0.236,0.095l-0.185,0.072
		C25.982,43.287,24.368,43.593,22.716,43.593z M29.621,43.933c0.079-0.041,0.153-0.088,0.231-0.13
		c0.136-0.072,0.268-0.149,0.401-0.225c0.252-0.145,0.5-0.296,0.743-0.455c0.126-0.083,0.252-0.165,0.375-0.251
		c0.255-0.178,0.502-0.366,0.745-0.559c0.096-0.077,0.195-0.149,0.29-0.228c0.333-0.279,0.657-0.57,0.966-0.878
		c0.327-0.327,0.632-0.673,0.926-1.03c0.083-0.1,0.16-0.203,0.239-0.304c0.211-0.27,0.413-0.548,0.604-0.833
		c0.078-0.115,0.156-0.229,0.23-0.347c0.218-0.344,0.423-0.698,0.614-1.062c0.026-0.051,0.057-0.099,0.083-0.15
		c0.006-0.013,0.014-0.024,0.02-0.036l10.516,10.516l-6.479,6.479L29.621,43.933z M26.106,81.401L26.106,81.401
		c-0.01,0.01-0.02,0.02-0.028,0.027l-0.341,0.342c-0.072,0.026-0.142,0.062-0.207,0.104c-1.373,0.908-3.321,0.714-4.496-0.461
		c-1.192-1.189-1.388-3.075-0.465-4.482c0.044-0.067,0.08-0.14,0.105-0.214l19.745-19.744c0.21-0.031,0.411-0.112,0.563-0.265
		l7.893-7.893c0.158-0.158,0.235-0.359,0.265-0.564l13.275-13.275l5,5C49.924,57.527,26.106,81.401,26.106,81.401z M79.728,58.837
		l-10.01-19.683c-0.048-0.094-0.11-0.18-0.185-0.254l-6.413-6.412c-0.07-0.071-0.151-0.131-0.24-0.177l-9.374-4.945l-2.218-3.204
		c-0.136-0.195-0.336-0.336-0.565-0.397l-6.586-1.752l11.768-11.769l3.242,5.588c0.145,0.248,0.389,0.423,0.67,0.479l3.241,0.646
		l15.493,15.467l4.701,23.8L79.728,58.837z"/>
	<path d="M66.318,83.881c0.189,0.19,0.445,0.293,0.707,0.293c0.086,0,0.174-0.011,0.259-0.034l6.556-1.758
		c0.345-0.093,0.614-0.362,0.707-0.707l1.757-6.555c0.093-0.345-0.006-0.714-0.259-0.966l-4.799-4.797
		c-0.253-0.253-0.617-0.353-0.966-0.259l-6.557,1.756c-0.345,0.093-0.615,0.362-0.707,0.707l-1.756,6.555
		c-0.093,0.345,0.006,0.713,0.259,0.966L66.318,83.881z M70.24,71.18l3.982,3.98L72.765,80.6l-5.44,1.458l-3.98-3.981l1.455-5.439
		L70.24,71.18z"/>
</g>
</svg>
