<?xml version="1.0" encoding="utf-8"?>
<!-- Generator: Adobe Illustrator 16.0.4, SVG Export Plug-In . SVG Version: 6.00 Build 0)  -->
<!DOCTYPE svg PUBLIC "-//W3C//DTD SVG 1.1//EN" "http://www.w3.org/Graphics/SVG/1.1/DTD/svg11.dtd">
<svg version="1.1" id="Layer_1" xmlns="http://www.w3.org/2000/svg" xmlns:xlink="http://www.w3.org/1999/xlink" x="0px" y="0px"
	 width="120px" height="120px" viewBox="0 0 50 50" enable-background="new 0 0 50 50" xml:space="preserve">
<path d="M25.596,31.299l3.799-5.382l3.918,2.13l5.867,0.069v-1.14h-5.451l-4.681-2.544l-3.028,4.292l-3.162-10.677l-1.65,11.658
	l-2.195-6.26l-2.066,3.529h-3.564v-9.578h-0.569v16.692h-1.992v0.569h1.992v1.99h0.569V34.66H39.18v-0.569H21.736l1.516-10.703
	L25.596,31.299z M13.382,34.09v-5.974h4.216l1.155-1.97l2.786,7.943H13.382z M32.838,20.915c1.938-1.117,2.604-3.604,1.485-5.54
	s-3.604-2.602-5.541-1.484c-1.937,1.118-2.604,3.604-1.485,5.539C28.416,21.369,30.9,22.033,32.838,20.915z M29.118,14.472
	c1.616-0.932,3.69-0.376,4.624,1.24c0.932,1.616,0.377,3.689-1.24,4.623c-1.615,0.935-3.689,0.376-4.622-1.24
	C26.945,17.479,27.501,15.405,29.118,14.472z M33.859,20.668l1.343,2.324l-1.743,1.007l-1.343-2.324L33.859,20.668z M33.637,24.315
	l1.745-1.007c0.277,0.482,0.113,1.099-0.368,1.376S33.916,24.797,33.637,24.315z"/>
</svg>
