<?xml version="1.0" encoding="utf-8"?>
<!-- Generator: Adobe Illustrator 15.0.0, SVG Export Plug-In . SVG Version: 6.00 Build 0)  -->
<!DOCTYPE svg PUBLIC "-//W3C//DTD SVG 1.1//EN" "http://www.w3.org/Graphics/SVG/1.1/DTD/svg11.dtd">
<svg version="1.1" id="Layer_1" xmlns="http://www.w3.org/2000/svg" xmlns:xlink="http://www.w3.org/1999/xlink" x="0px" y="0px"
	 width="64px" height="64px" viewBox="0 0 64 64" enable-background="new 0 0 64 64" xml:space="preserve">
<g>
	<path d="M28.596,11.925l6.493,19.79l7.768-2.549l-6.497-19.79L28.596,11.925z M36.097,29.718l-5.505-16.783l4.76-1.564
		l5.507,16.786L36.097,29.718z"/>
	<path d="M38.221,8.458l-1.32-4.03L25.127,8.294l1.322,4.028L38.221,8.458z M35.891,6.426l0.336,1.023l-8.769,2.875l-0.334-1.021
		L35.891,6.426z"/>
	<path d="M37.49,39.298c0.565,1.729,2.167,2.887,3.987,2.887c0.443,0,0.882-0.068,1.304-0.209c1.063-0.35,1.928-1.093,2.435-2.094
		c0.505-0.999,0.593-2.138,0.244-3.197l-2.406-7.332l-7.97,2.618L37.49,39.298z M42.046,31.351l1.911,5.826
		c0.217,0.663,0.163,1.367-0.153,1.992s-0.853,1.087-1.515,1.305c-0.266,0.088-0.538,0.129-0.813,0.129
		c-1.133,0-2.132-0.724-2.483-1.797l-1.914-5.825L42.046,31.351z"/>
	<path d="M51.242,45.486l-0.199-0.66c-0.481-1.602-2.116-2.639-4.161-2.639c-0.596,0-1.197,0.091-1.787,0.267l-15.346,4.601
		c-0.917-2.407-3.029-4.113-5.594-4.51l-3.16-9.597c-0.696-2.119,0.459-4.41,2.578-5.11l8.794-2.896l-2.511-7.627l-8.796,2.898
		c-3.059,1.007-5.546,3.149-6.999,6.033c-1.456,2.882-1.701,6.157-0.693,9.213l3.485,10.582c-0.633,1.09-0.967,2.325-0.967,3.577
		c0,1.428,0.436,2.837,1.238,4.02h-1.864v5.933h30.937v-5.933H33.312L51.242,45.486z M28.849,19.312l1.523,4.624l-7.292,2.402
		c-1.425,0.469-2.584,1.468-3.262,2.812s-0.792,2.869-0.323,4.294l2.976,9.036c-1.637,0.132-3.156,0.814-4.348,1.95l-3.252-9.465
		c-0.875-2.655-0.662-5.502,0.604-8.008c1.263-2.504,3.423-4.365,6.081-5.242L28.849,19.312z M18.472,46.433l0.293-0.135
		l-0.059-0.173c1.054-1.313,2.597-2.069,4.296-2.092l0.051,0.116l0.209-0.104c2.459,0.091,4.593,1.805,5.203,4.188l0.204,0.798
		l16.88-5.06c1.375-0.413,2.96-0.086,3.646,0.71l-23.184,10.54h18.604v2.769H16.84v-2.769h4.146l-1.594-1.389
		c-1.225-1.065-1.926-2.601-1.926-4.213C17.466,48.478,17.814,47.38,18.472,46.433z"/>
</g>
</svg>
