<?xml version="1.0" encoding="utf-8"?>
<!-- Generator: Adobe Illustrator 16.0.0, SVG Export Plug-In . SVG Version: 6.00 Build 0)  -->
<!DOCTYPE svg PUBLIC "-//W3C//DTD SVG 1.1//EN" "http://www.w3.org/Graphics/SVG/1.1/DTD/svg11.dtd">
<svg version="1.1" id="Layer_5" xmlns="http://www.w3.org/2000/svg" xmlns:xlink="http://www.w3.org/1999/xlink" x="0px" y="0px"
	 width="100px" height="100px" viewBox="0 0 100 100" enable-background="new 0 0 100 100" xml:space="preserve">
<path d="M54.845,46.265c0,1.207-0.447,2.362-1.258,3.256c-0.163,0.18-0.388,0.271-0.614,0.271c-0.2,0-0.399-0.071-0.559-0.215
	c-0.339-0.308-0.364-0.833-0.056-1.173c0.532-0.586,0.826-1.346,0.826-2.139c0-1.755-1.428-3.183-3.184-3.183
	s-3.183,1.427-3.183,3.183c0,0.78,0.284,1.53,0.8,2.112c0.306,0.342,0.274,0.869-0.068,1.173c-0.345,0.304-0.87,0.271-1.172-0.07
	c-0.787-0.886-1.221-2.028-1.221-3.214c0-2.671,2.174-4.844,4.845-4.844S54.845,43.594,54.845,46.265z M50,34.638
	c-6.41,0-11.626,5.215-11.626,11.626c0,3.027,1.157,5.894,3.259,8.072c0.163,0.169,0.38,0.254,0.597,0.254
	c0.208,0,0.416-0.077,0.577-0.233c0.33-0.318,0.339-0.844,0.021-1.174c-1.801-1.867-2.793-4.324-2.793-6.919
	c0-5.495,4.471-9.965,9.966-9.965c5.495,0,9.966,4.47,9.966,9.965c0,2.595-0.992,5.052-2.793,6.919
	c-0.318,0.33-0.31,0.855,0.021,1.174c0.33,0.319,0.856,0.31,1.174-0.021c2.102-2.178,3.259-5.045,3.259-8.072
	C61.627,39.854,56.411,34.638,50,34.638z M50,27.441c-10.38,0-18.824,8.444-18.824,18.824c0,4.952,1.907,9.627,5.37,13.165
	c0.321,0.329,0.847,0.333,1.174,0.013c0.328-0.321,0.334-0.847,0.013-1.174c-3.157-3.226-4.896-7.49-4.896-12.004
	c0-9.464,7.699-17.163,17.163-17.163s17.163,7.699,17.163,17.163c0,4.515-1.738,8.779-4.896,12.004
	c-0.321,0.328-0.316,0.854,0.013,1.174c0.162,0.158,0.371,0.237,0.581,0.237c0.215,0,0.431-0.083,0.593-0.249
	c3.463-3.539,5.37-8.214,5.37-13.166C68.824,35.885,60.38,27.441,50,27.441z M60.424,72.998v3.983
	c10.996,0.362,18.925,1.378,18.925,2.58c0,1.503-12.409,2.724-27.721,2.724s-27.72-1.22-27.72-2.724
	c0-1.08,6.402-2.007,15.668-2.447v-4.116H6.723V17.716h86.555v55.282H60.424z M87.59,68.261v-46.28H12.408v46.28H87.59z"/>
</svg>
