<?xml version="1.0" encoding="iso-8859-1"?>
<!-- Generator: Adobe Illustrator 16.0.4, SVG Export Plug-In . SVG Version: 6.00 Build 0)  -->
<!DOCTYPE svg PUBLIC "-//W3C//DTD SVG 1.1//EN" "http://www.w3.org/Graphics/SVG/1.1/DTD/svg11.dtd">
<svg version="1.1" id="Capa_1" xmlns="http://www.w3.org/2000/svg" xmlns:xlink="http://www.w3.org/1999/xlink" x="0px" y="0px"
	 width="64px" height="64px" viewBox="0 0 64 64" style="enable-background:new 0 0 64 64;" xml:space="preserve">
<path d="M52.043,15.919c-4.941,0-9.885,0-14.827,0c-7.437,0-14.874,0-22.31,0c-1.207,0-2.413,0-3.62,0c-0.545,0-1,0.455-1,1
	c0,5.959,0,11.917,0,17.876c0,3.484,0,6.971,0,10.455c0,0.545,0.455,1,1,1c3.853,0,7.706,0,11.558,0c0.755,0,1.055-0.682,0.926-1.25
	c-0.091-0.403-0.391-0.75-0.926-0.75c-3.519,0-7.039,0-10.558,0c0-5.625,0-11.25,0-16.876c0-1.125,0-2.25,0-3.374H11v-7h41v7h-0.957
	c0,3.598,0,7.196,0,10.795c0,3.151,0,6.304,0,9.455c-5.576,0-11.151,0-16.729,0c-0.105,0-0.211,0-0.315,0
	c-0.535,0-0.835,0.347-0.927,0.75c-0.128,0.568,0.172,1.25,0.927,1.25c5.91,0,11.819,0,17.729,0c0.104,0,0.209,0,0.314,0
	c0.545,0,1-0.455,1-1c0-5.959,0-11.917,0-17.876c0-3.485,0-6.97,0-10.455C53.043,16.374,52.588,15.919,52.043,15.919z"/>
<path d="M52,24v-7H11v7h1.286h38.757H52z M19,21.5c-1.333,0-2.667,0-4,0c-0.645,0-0.645-1,0-1c1.333,0,2.667,0,4,0
	C19.645,20.5,19.645,21.5,19,21.5z M19,19.5c-1.333,0-2.667,0-4,0c-0.645,0-0.645-1,0-1c1.333,0,2.667,0,4,0
	C19.645,18.5,19.645,19.5,19,19.5z M48.625,21C43.083,21,37.542,21,32,21c-1.29,0-1.29-2,0-2c5.542,0,11.083,0,16.625,0
	C49.915,19,49.915,21,48.625,21z"/>
<path d="M40.031,35.631c1.877,1.73,4.738,1.17,6.529-0.355c0.907-0.771,1.543-1.889,1.713-3.066
	c0.168-1.171-0.176-2.195-0.771-3.188c-0.696-1.162-1.594-2.239-2.527-3.222c-0.056-0.112-0.144-0.178-0.25-0.204
	c-0.004-0.002-0.009-0.002-0.014-0.004c-0.029-0.006-0.057-0.013-0.088-0.014c-0.252-0.035-0.493,0.157-0.552,0.405
	c0,0-0.001,0.001-0.001,0.001c-0.013,0.054-0.014,0.109-0.006,0.166c0.001,0.019-0.005,0.034-0.002,0.053
	c0.215,1.347-0.363,2.402-1.643,2.887c-1.141,0.432-2.363,0.252-3.305,1.155C37.543,31.752,38.703,34.408,40.031,35.631z
	 M39.632,31.195c0.589-1.022,2.226-0.827,3.194-1.195c0.001,0,0.003-0.001,0.004-0.002c0.022-0.159,0.059-0.314,0.121-0.458
	c0.115-0.269,0.464-0.077,0.432,0.18c0.804-0.453,1.416-1.152,1.645-2.082c0.017-0.068,0.023-0.138,0.035-0.207
	c0.18,0.214,0.373,0.416,0.547,0.634c0.661,0.83,1.43,1.816,1.647,2.882c0.377,0.288,0.677,0.678,0.769,1.07
	c0.074,0.314-0.407,0.447-0.481,0.133c-0.036-0.156-0.121-0.297-0.222-0.43c-0.066,2.247-2.376,4.035-4.559,3.984
	c-1.222-0.028-2.218-0.757-2.837-1.769C39.443,33.148,39.143,32.047,39.632,31.195z"/>
<path d="M41.787,37.318c0.213-0.139,0.124-0.448-0.126-0.465c-1.968-0.133-3.409-2.246-3.644-4.065
	c-0.024-0.195-0.264-0.359-0.427-0.177c-0.042,0.047-0.084,0.094-0.126,0.142c-0.006,0.007-0.002,0.014-0.007,0.021
	c-0.011,0.011-0.022,0.018-0.032,0.031c-0.785,1.151-0.371,2.754,0.443,3.777C38.868,37.837,40.412,38.225,41.787,37.318z
	 M38.305,36.331c-0.645-0.753-1.022-1.936-0.652-2.885c0.418,1.642,1.583,3.256,3.205,3.756
	C39.923,37.494,39.006,37.152,38.305,36.331z"/>
<path d="M39.831,39.266c0.345-0.246,0.321-0.785-0.119-0.914c-1.555-0.459-3.058-1.998-2.961-3.729
	c0.024-0.441-0.56-0.654-0.854-0.354c-1.994,2.039-3.992,4.078-5.99,6.114c-1.306,1.331-2.613,2.662-3.924,3.989
	c-0.207,0.209-0.415,0.418-0.623,0.627c-0.177,0.179-0.353,0.358-0.531,0.535c-0.465,0.462-0.896,0.835-0.794,1.562
	c0.067,0.481,0.604,0.932,0.902,1.28c0.508,0.594,1.112,0.471,1.721,0.139c0.003-0.002,0.006-0.001,0.009-0.003
	c0.819-0.474,1.583-1.07,2.357-1.609c0.905-0.631,1.804-1.269,2.706-1.904c0.607-0.429,1.217-0.854,1.823-1.283
	C35.646,42.236,37.74,40.752,39.831,39.266z M29.997,45c-0.465,0.327-0.929,0.656-1.396,0.982c-0.801,0.561-1.592,1.179-2.44,1.668
	c-0.297,0.162-0.362,0.205-0.568-0.034c-0.146-0.171-0.292-0.341-0.437-0.511c-0.254-0.297-0.05-0.443,0.193-0.679
	c0.301-0.29,0.593-0.59,0.887-0.887c0.178-0.18,0.354-0.36,0.532-0.54c1.05-1.062,2.097-2.128,3.144-3.193
	c1.989-2.026,3.976-4.055,5.962-6.083c0.341,1.384,1.416,2.569,2.684,3.224c-1.835,1.304-3.671,2.607-5.511,3.906
	C32.031,43.571,31.014,44.285,29.997,45z"/>
<path d="M44.309,32.18c0.617,0.058,0.926-0.228,1.229-0.729c0.292-0.483,0.648-0.515,1.139-0.269
	c0.239,0.12,0.475,0.311,0.646,0.538c0.101,0.133,0.186,0.274,0.222,0.43c0.074,0.314,0.556,0.181,0.481-0.133
	c-0.092-0.392-0.392-0.782-0.769-1.07c-0.503-0.383-1.149-0.58-1.671-0.307c-0.501,0.262-0.492,1.036-1.134,1.054
	c-0.89,0.025-1.372-1.198-1.07-1.901c0.011-0.026-0.002-0.047,0.001-0.073c0.032-0.257-0.316-0.449-0.432-0.18
	c-0.062,0.144-0.099,0.299-0.121,0.458C42.695,30.956,43.262,32.081,44.309,32.18z"/>
</svg>
