<?xml version="1.0" encoding="utf-8"?>
<!-- Generator: Adobe Illustrator 15.0.0, SVG Export Plug-In . SVG Version: 6.00 Build 0)  -->
<!DOCTYPE svg PUBLIC "-//W3C//DTD SVG 1.1//EN" "http://www.w3.org/Graphics/SVG/1.1/DTD/svg11.dtd">
<svg version="1.1" id="Layer_1" xmlns="http://www.w3.org/2000/svg" xmlns:xlink="http://www.w3.org/1999/xlink" x="0px" y="0px"
	 width="80px" height="80px" fill="#fff" viewBox="0 0 64 64" enable-background="new 0 0 64 64" xml:space="preserve">
<g>
	<path d="M55.603,4.602H8.396c-1.859,0-3.372,1.513-3.372,3.372v35.558c0,1.859,1.513,3.372,3.372,3.372h13.333
		c0.99,1.283,2.99,4.363,2.291,5.827c-0.284,0.59-1.056,0.89-2.296,0.89c-6.709,0-6.903,2.377-6.903,2.649v3.129h34.36v-4.092
		l-0.189-0.144c-0.083-0.063-2.084-1.543-7.02-1.543c-1.078,0-1.292-0.421-1.365-0.56c-0.614-1.205,1.054-4.327,2.337-6.157h12.66
		c1.861,0,3.374-1.513,3.374-3.372V7.974C58.977,6.114,57.464,4.602,55.603,4.602z M39.749,53.499
		c0.367,0.72,1.112,1.083,2.222,1.083c3.75,0,5.669,0.901,6.246,1.229v2.625H15.782v-2.144c0.049-0.475,1.215-1.71,5.941-1.71
		c1.644,0,2.708-0.482,3.164-1.436c0.88-1.84-0.941-4.809-1.959-6.243h18.851C40.779,48.436,38.857,51.757,39.749,53.499z
		 M58.014,43.531c0,1.329-1.081,2.409-2.411,2.409H43.637H20.958H8.396c-1.329,0-2.41-1.08-2.41-2.409V7.974
		c0-1.329,1.081-2.409,2.41-2.409h47.207c1.33,0,2.411,1.08,2.411,2.409V43.531z"/>
	<path d="M7.915,39.77h48.171V8.102H7.915V39.77z M8.879,9.066h46.244v29.74H8.879V9.066z"/>
	<circle cx="31.999" cy="43.367" r="1.59"/>
	<path d="M24.532,14.05l-2.354,9.568v0.271v2.916v0.525v2.916v0.486v3.442h19.1v-3.442v-0.486v-2.916v-0.525V23.89V23.6
		l-1.854-9.549H24.532z M40.791,33.688H22.664v-2.957h18.127V33.688z M40.791,30.246H22.664v-2.916h18.127V30.246z M40.791,26.805
		H22.664V23.89h18.127V26.805z M22.729,23.404l2.182-8.868h14.111l1.723,8.868H22.729z"/>
	<path d="M38.42,26.09c0.474,0,0.862-0.386,0.862-0.861c0-0.477-0.389-0.862-0.862-0.862c-0.477,0-0.861,0.385-0.861,0.862
		C37.559,25.704,37.943,26.09,38.42,26.09z M38.42,24.85c0.208,0,0.376,0.171,0.376,0.379c0,0.208-0.168,0.377-0.376,0.377
		s-0.379-0.17-0.379-0.377C38.041,25.021,38.212,24.85,38.42,24.85z"/>
	<path d="M38.42,29.617c0.474,0,0.862-0.387,0.862-0.862s-0.389-0.863-0.862-0.863c-0.477,0-0.861,0.388-0.861,0.863
		S37.943,29.617,38.42,29.617z M38.42,28.377c0.208,0,0.376,0.169,0.376,0.377c0,0.208-0.168,0.375-0.376,0.375
		s-0.379-0.168-0.379-0.375C38.041,28.547,38.212,28.377,38.42,28.377z"/>
	<path d="M38.42,32.95c0.474,0,0.862-0.385,0.862-0.862c0-0.475-0.389-0.861-0.862-0.861c-0.477,0-0.861,0.386-0.861,0.861
		C37.559,32.565,37.943,32.95,38.42,32.95z M38.42,31.711c0.208,0,0.376,0.169,0.376,0.377c0,0.209-0.168,0.377-0.376,0.377
		s-0.379-0.168-0.379-0.377C38.041,31.881,38.212,31.711,38.42,31.711z"/>
	<rect x="23.502" y="24.608" width="4.483" height="0.621"/>
	<rect x="23.502" y="27.826" width="4.483" height="0.621"/>
	<rect x="23.502" y="31.16" width="4.483" height="0.62"/>
</g>
</svg>
