<?xml version="1.0" encoding="iso-8859-1"?>
<!-- Generator: Adobe Illustrator 16.0.0, SVG Export Plug-In . SVG Version: 6.00 Build 0)  -->
<!DOCTYPE svg PUBLIC "-//W3C//DTD SVG 1.1//EN" "http://www.w3.org/Graphics/SVG/1.1/DTD/svg11.dtd">
<svg version="1.1" id="Layer_1" xmlns="http://www.w3.org/2000/svg" xmlns:xlink="http://www.w3.org/1999/xlink" x="0px" y="0px"
	 width="36px" height="36px" viewBox="0 0 36 36" style="enable-background:new 0 0 36 36;" xml:space="preserve">
<g>
	<path style="fill:#010101;" d="M20.7,14.528c0.292-0.705,0.488-1.52,0.532-2.375c0.063-0.858-0.055-1.751-0.311-2.619
		c-0.265-0.864-0.673-1.707-1.244-2.427c-0.554-0.726-1.258-1.337-1.996-1.738c-0.739-0.4-1.503-0.574-2.038-0.557
		c-0.26-0.009-0.49,0.063-0.625,0.099c-0.136,0.046-0.209,0.07-0.209,0.07s0.017,0.073,0.045,0.211
		c0.029,0.13,0.032,0.354,0.053,0.56c0.02,0.454-0.025,1.003-0.081,1.602c-0.1,1.18-0.074,2.559,0.354,3.919
		c0.213,0.676,0.487,1.352,0.86,1.974c0.356,0.626,0.786,1.205,1.224,1.702c0.397,0.44,1.293,1.459,1.618,1.718
		c0.082-0.578,0.153-1.17,0.167-1.771c0.034-0.423,0.005-0.843-0.002-1.258c-0.007-0.417-0.082-0.818-0.118-1.213
		c-0.07-0.389-0.165-0.76-0.242-1.115c-0.124-0.342-0.241-0.665-0.349-0.963c-0.152-0.279-0.291-0.536-0.414-0.764
		c-0.108-0.239-0.285-0.391-0.39-0.544c-0.233-0.293-0.367-0.461-0.367-0.461s0.146,0.157,0.399,0.433
		c0.117,0.146,0.309,0.289,0.435,0.521c0.142,0.222,0.302,0.473,0.477,0.746c0.133,0.297,0.277,0.618,0.43,0.959
		c0.105,0.355,0.23,0.731,0.332,1.126c0.066,0.4,0.174,0.813,0.213,1.238c0.038,0.426,0.1,0.859,0.097,1.294
		c0.018,0.494,0.011,0.983-0.012,1.464c0.039-0.042,0.084-0.077,0.121-0.123C20.026,15.824,20.399,15.232,20.7,14.528z"/>
	<path style="fill:#010101;" d="M16.828,18.133c0.065,0.106,0.119,0.208,0.18,0.313c-3.263,0.623-5.91,2.974-6.956,6.066
		l0.216,0.027c0.269,0.002,0.68,0.067,1.383,0.191c0.014-0.209,0.087-0.411,0.217-0.582c0.518-0.684,1.271-1.046,2.181-1.046
		c1.365,0.004,2.81,0.045,4.271,0.487c0.77,0.232,1.558,0.189,2.358-0.133c2.303-0.922,4.325-0.836,5.959,0.229
		c0.202,0.132,0.412,0.271,0.625,0.415c-1.162-2.963-3.82-5.173-7.045-5.7c0.088-0.154,0.171-0.307,0.269-0.466
		c0.09-0.145,0.271-0.535,0.247-0.627c-0.011-0.057-0.008-0.112-0.011-0.168c-0.328,0.413-0.623,0.828-0.882,1.223
		c-0.16-0.02-0.324-0.026-0.487-0.038c0.085-0.615,0.154-1.274,0.187-1.966c-0.051,0.053-0.097,0.11-0.156,0.158
		c-0.104,0.07-0.264,0.616-0.3,0.839c-0.057,0.325-0.12,0.633-0.186,0.934c-0.056-0.001-0.109-0.013-0.165-0.013
		c-0.47,0-0.931,0.039-1.382,0.107c-0.23-0.343-0.478-0.692-0.758-1.046c-0.003,0.055,0,0.111-0.011,0.168
		C16.558,17.598,16.738,17.988,16.828,18.133z"/>
	<path style="fill:#010101;" d="M22.143,15.611c0.235-0.224,0.501-0.404,0.738-0.6c0.254-0.175,0.513-0.326,0.75-0.477
		c0.257-0.118,0.499-0.229,0.723-0.332c0.236-0.068,0.452-0.132,0.644-0.188c0.188-0.069,0.367-0.056,0.507-0.081
		c0.282-0.03,0.443-0.047,0.443-0.047s-0.16,0.029-0.439,0.079c-0.136,0.035-0.312,0.034-0.492,0.116
		c-0.184,0.068-0.391,0.146-0.617,0.229c-0.209,0.116-0.437,0.242-0.678,0.375c-0.222,0.164-0.46,0.328-0.693,0.515
		c-0.218,0.207-0.46,0.398-0.672,0.633c-0.211,0.232-0.437,0.457-0.628,0.715c-0.292,0.35-0.546,0.723-0.787,1.093
		c0.314,0.015,1.332-0.12,1.777-0.173c0.497-0.065,1.03-0.181,1.546-0.36c0.521-0.168,1.016-0.417,1.473-0.695
		c0.923-0.562,1.624-1.335,2.154-2.056c0.267-0.369,0.515-0.704,0.752-0.953c0.114-0.107,0.228-0.233,0.309-0.293
		c0.085-0.063,0.131-0.097,0.131-0.097s-0.029-0.052-0.084-0.146c-0.06-0.087-0.154-0.243-0.307-0.367
		c-0.297-0.276-0.818-0.558-1.439-0.698c-0.62-0.139-1.325-0.142-2.003-0.004c-0.684,0.126-1.336,0.402-1.917,0.763
		c-0.578,0.367-1.09,0.817-1.482,1.338c-0.4,0.509-0.694,1.07-0.879,1.617c-0.18,0.552-0.262,1.074-0.258,1.492
		c-0.002,0.044,0.006,0.087,0.008,0.13c0.227-0.285,0.466-0.567,0.723-0.84C21.657,16.051,21.909,15.834,22.143,15.611z"/>
	<path style="fill:#010101;" d="M8.67,13.603c0.237,0.249,0.484,0.584,0.751,0.952c0.531,0.722,1.232,1.495,2.154,2.057
		c0.458,0.278,0.951,0.526,1.474,0.695c0.515,0.18,1.049,0.295,1.545,0.36c0.446,0.053,1.464,0.188,1.777,0.172
		c-0.24-0.37-0.495-0.742-0.787-1.092c-0.191-0.258-0.417-0.482-0.627-0.716c-0.212-0.233-0.455-0.425-0.672-0.632
		c-0.233-0.187-0.473-0.351-0.694-0.515c-0.24-0.133-0.469-0.259-0.678-0.375c-0.226-0.083-0.433-0.16-0.616-0.229
		c-0.181-0.082-0.356-0.081-0.493-0.116c-0.279-0.051-0.438-0.079-0.438-0.079s0.161,0.017,0.443,0.047
		c0.14,0.025,0.319,0.012,0.507,0.081c0.191,0.055,0.407,0.119,0.643,0.188c0.225,0.103,0.467,0.214,0.724,0.332
		c0.237,0.149,0.495,0.302,0.75,0.477c0.237,0.195,0.503,0.376,0.738,0.6c0.233,0.223,0.484,0.439,0.699,0.688
		c0.256,0.272,0.495,0.555,0.723,0.84c0.001-0.043,0.01-0.086,0.007-0.131c0.005-0.417-0.077-0.939-0.257-1.491
		c-0.185-0.547-0.479-1.108-0.88-1.617c-0.392-0.521-0.903-0.971-1.481-1.338c-0.582-0.36-1.233-0.637-1.918-0.763
		c-0.677-0.138-1.383-0.136-2.003,0.004S8.917,12.424,8.621,12.7c-0.152,0.124-0.248,0.28-0.307,0.367
		C8.26,13.161,8.23,13.212,8.23,13.212s0.045,0.033,0.13,0.098C8.442,13.369,8.556,13.495,8.67,13.603z"/>
	<path style="fill:#010101;" d="M31.054,28.812c-1.407-1.909-3.249-3.333-5.19-4.598c-1.576-1.025-3.371-0.807-5.042-0.138
		c-1.024,0.41-2.037,0.459-3.021,0.161c-1.313-0.397-2.633-0.44-3.973-0.444c-0.574-0.002-1.051,0.199-1.393,0.65
		c-0.191,0.252,1.373,1.299,2.715,1.299c-0.249,0.497-4.586-0.555-5.164-0.512l-3.281-0.42c-1.166-0.095-1.164-0.535-2.311,0.113
		c-0.039,0.023-0.096,0.023-0.143,0.02c-0.638-0.037-0.998,0.166-1.353,0.588c-0.205,0.244-0.188,0.543-0.079,0.828
		c0.115,0.297,0.408,0.22,0.648,0.315c1.467,0.581,1.94,0.865,3.93,1.356c1.415,0.35,2.794,0.777,4.207,1.096
		c0.584,0.133,1.178,0.232,1.705,0.528c1.119,0.63,2.309,0.821,3.588,0.763c1.451-0.066,2.906-0.008,4.361-0.016
		c2.553-0.012,4.491,1.01,5.804,3.258l8.212-0.017C33.482,31.545,32.692,31.037,31.054,28.812z"/>
</g>
</svg>
