<?xml version="1.0" encoding="utf-8"?>
<!-- Generator: Adobe Illustrator 15.0.0, SVG Export Plug-In . SVG Version: 6.00 Build 0)  -->
<!DOCTYPE svg PUBLIC "-//W3C//DTD SVG 1.1//EN" "http://www.w3.org/Graphics/SVG/1.1/DTD/svg11.dtd">
<svg version="1.1" id="Layer_1" xmlns="http://www.w3.org/2000/svg" xmlns:xlink="http://www.w3.org/1999/xlink" x="0px" y="0px"
	 width="64px" height="64px" viewBox="0 0 64 64" enable-background="new 0 0 64 64" xml:space="preserve">
<g>
	<path fill="#131019" d="M31.336,36.353l0.021,0.316c0.052,0.877,0.784,1.564,1.666,1.564c0.919,0,1.668-0.749,1.668-1.672
		c0-0.918-0.746-1.664-1.665-1.664h-0.327l-6.181-4.546L31.336,36.353z"/>
	<path fill="#131019" d="M12.794,15l0.765-0.706c4.426-4.069,9.896-6.52,15.821-7.083l1.093-0.104l0.004,6.841h1.754V7.092
		l1.043,0.05c6.564,0.305,12.794,2.964,17.54,7.491l0.738,0.703l-4.286,4.297l1.244,1.241l4.234-4.237l0.695,0.884
		c2.793,3.55,4.672,7.786,5.431,12.249l0.197,1.164l-5.896,0.004v1.758h6.047l0.048,1.207c0.01,0.154,0.02,0.305,0.02,0.462
		c0,4.782-1.274,9.503-3.686,13.652l-0.651,1.12l-4.691-4.686l-1.239,1.242l4.078,4.079h2.896c2.962-4.599,4.525-9.912,4.525-15.408
		c0-15.721-12.794-28.514-28.519-28.514c-15.724,0-28.516,12.793-28.516,28.514c0,5.502,1.565,10.815,4.526,15.408h2.956
		l4.164-3.638l-1.154-1.324l-4.926,4.306l-0.611-1.042c-2.436-4.169-3.722-8.907-3.722-13.71c0-0.157,0.01-0.308,0.023-0.462
		l0.046-1.204l5.832-0.006v-1.758H4.933l0.197-1.166c0.79-4.656,2.776-9.031,5.736-12.653l0.698-0.854l4.191,4.187l0.136-0.133
		l0.141-0.146l0.965-0.964L12.794,15z"/>
	<rect x="19.703" y="56.284" fill="#131019" width="24.596" height="1.867"/>
</g>
</svg>
