<?xml version="1.0" encoding="utf-8"?>
<!-- Generator: Adobe Illustrator 16.0.4, SVG Export Plug-In . SVG Version: 6.00 Build 0)  -->
<!DOCTYPE svg PUBLIC "-//W3C//DTD SVG 1.1//EN" "http://www.w3.org/Graphics/SVG/1.1/DTD/svg11.dtd">
<svg version="1.1" id="Capa_1" xmlns="http://www.w3.org/2000/svg" xmlns:xlink="http://www.w3.org/1999/xlink" x="0px" y="0px"
	 width="64px" height="64px" viewBox="0 0 64 64" enable-background="new 0 0 64 64" xml:space="preserve">
<path d="M51.677,57.033H33.529c-0.606,0-1.099-0.492-1.103-1.098l-0.03-5.752c-0.003-0.604,0.446-1.287,1.005-1.523l3.236-1.368
	c0.559-0.235,0.83-0.885,0.608-1.448l-1.463-3.729c-0.222-0.563,0.057-1.196,0.623-1.414l14.936-5.736
	c0.566-0.218,0.818-0.839,0.564-1.39l-0.375-0.812c-0.255-0.552-0.917-0.82-1.482-0.603l-21.677,8.375
	c-0.564,0.219-0.896,0.87-0.737,1.455l0.185,0.686c0.158,0.584-0.21,1.084-0.809,0.997c-1.777-0.261-5.174-1.467-5.942-6.839
	c-0.988-6.923,2.89-11.84,9.881-14.284c0.572-0.199,1.237,0.112,1.477,0.669l0.049,0.114c0.24,0.556,0.302,1.063,0.14,1.134
	c-0.163,0.071-0.241,0.255-0.173,0.412c0.068,0.156,0.255,0.227,0.417,0.156c0.164-0.071,0.375,0.055,0.472,0.279
	c0.099,0.225,0.365,0.466,0.599,0.539c0.232,0.071,0.37,0.617,0.31,1.221l-0.005,0.043c-0.062,0.603,0.076,1.049,0.31,0.996
	c0.233-0.052,0.461-0.495,0.511-0.99c0.051-0.493,0.532-0.758,1.077-0.591c0.543,0.168,1.077,0.521,1.192,0.786
	c0.115,0.267,0.392,0.404,0.617,0.307s0.314-0.393,0.199-0.658c-0.115-0.267,0.008-0.923,0.275-1.467l0.037-0.076
	c0.268-0.544,0.832-0.718,1.262-0.388c0.43,0.329,0.938,0.489,1.135,0.356c0.197-0.133-0.033-0.54-0.514-0.908l-0.162-0.125
	c-0.48-0.369-0.805-0.802-0.724-0.966c0.081-0.165,0.067-0.481-0.03-0.706c-0.097-0.226-0.039-0.468,0.129-0.54
	c0.168-0.073,0.25-0.259,0.182-0.416c-0.065-0.156-0.258-0.224-0.426-0.151c-0.168,0.073-0.5-0.318-0.74-0.875L32.31,6.209
	c-0.24-0.556-0.833-0.834-1.326-0.621c-0.491,0.212-1.085-0.066-1.325-0.622l-1.117-2.591c-0.239-0.556-0.886-0.812-1.441-0.572
	L26.59,2.024c-0.556,0.24-0.812,0.886-0.572,1.441l1.117,2.59c0.24,0.557,0.036,1.18-0.456,1.392
	c-0.493,0.212-0.77,0.667-0.619,1.017c0.151,0.348,0.014,0.743-0.307,0.881c-0.321,0.139-0.385,0.701-0.146,1.257l1.72,3.987
	c0.239,0.557-0.024,1.186-0.575,1.434c-4.433,1.993-13.693,7.793-11.37,20.813c1.625,9.104,7.992,11.295,10.562,11.812
	c0.593,0.119,1.086,0.648,1.088,1.254l0.02,5.935c0.002,0.606-0.486,1.097-1.093,1.097h-6.622c-0.606,0-1.092,0.49-1.084,1.098
	l0.015,1.363C18.275,60,18.429,60.49,18.61,60.49c0.184,0,0.331,0.16,0.331,0.357c0,0.198,0.49,0.358,1.097,0.358h0.987
	c0.606,0,1.097-0.159,1.097-0.358c0-0.197,0.491-0.357,1.097-0.357h24.495c0.604,0,1.097,0.16,1.097,0.357
	c0,0.198,0.491,0.358,1.098,0.358h0.986c0.605,0,1.098-0.159,1.098-0.358c0-0.197,0.175-0.357,0.39-0.357
	c0.218,0,0.392-0.491,0.392-1.098V58.13C52.773,57.523,52.283,57.033,51.677,57.033z M28.647,18.504
	c0.417,0,0.753,0.338,0.753,0.756c0,0.416-0.337,0.754-0.754,0.754s-0.754-0.338-0.754-0.754
	C27.892,18.842,28.23,18.504,28.647,18.504z M29.67,48.158c-0.417,0-0.755-0.34-0.755-0.756s0.338-0.756,0.755-0.756
	s0.756,0.34,0.756,0.756S30.087,48.158,29.67,48.158z"/>
</svg>
