<?xml version="1.0" encoding="utf-8"?>
<!-- Generator: Adobe Illustrator 15.0.0, SVG Export Plug-In . SVG Version: 6.00 Build 0)  -->
<!DOCTYPE svg PUBLIC "-//W3C//DTD SVG 1.1//EN" "http://www.w3.org/Graphics/SVG/1.1/DTD/svg11.dtd">
<svg version="1.1" id="Layer_1" xmlns="http://www.w3.org/2000/svg" xmlns:xlink="http://www.w3.org/1999/xlink" x="0px" y="0px"
	 width="64px" height="64px" viewBox="0 0 64 64" enable-background="new 0 0 64 64" xml:space="preserve">
<g>
	<path fill="#231F20" d="M56.509,3.552H7.493c-1.931,0-3.503,1.571-3.503,3.501v36.919c0,1.931,1.572,3.502,3.503,3.502h13.843
		c1.028,1.332,3.104,4.53,2.378,6.051c-0.295,0.612-1.096,0.923-2.384,0.923c-6.966,0-7.167,2.469-7.167,2.749v3.251H49.84V56.2
		l-0.198-0.149c-0.086-0.066-2.163-1.603-7.288-1.603c-1.12,0-1.343-0.438-1.417-0.581c-0.64-1.253,1.093-4.492,2.426-6.393h13.146
		c1.931,0,3.502-1.571,3.502-3.502V7.053C60.011,5.123,58.439,3.552,56.509,3.552z M40.047,54.321
		c0.38,0.747,1.156,1.126,2.307,1.126c3.895,0,5.887,0.935,6.485,1.276v2.726H15.162v-2.227c0.051-0.493,1.261-1.775,6.168-1.775
		c1.707,0,2.811-0.501,3.286-1.491c0.915-1.909-0.976-4.994-2.032-6.481h19.573C41.114,49.065,39.121,52.513,40.047,54.321z
		 M59.011,43.973c0,1.381-1.121,2.502-2.502,2.502H44.082H20.536H7.493c-1.38,0-2.502-1.121-2.502-2.502V7.053
		c0-1.38,1.122-2.502,2.502-2.502h49.016c1.381,0,2.502,1.122,2.502,2.502V43.973z"/>
	<path fill="#231F20" d="M6.993,40.065h50.016V7.187H6.993V40.065z M7.992,8.186h48.016v30.881H7.992V8.186z"/>
	<circle fill="#231F20" cx="32" cy="43.802" r="1.651"/>
	<path fill="#231F20" d="M32.003,16.107l-9.059-0.772v8.096v1.001v8.125l9.059-1.352V31.18l8.302-1.241v-5.59v-0.76v-6.752
		l-8.302-0.706V16.107z M31.192,30.504l-7.436,1.11v-7.183h7.436V30.504z M31.192,23.43h-7.436v-7.212l7.436,0.636V23.43z
		 M32.059,16.948l7.436,0.635v5.954h-7.436V16.948z M32.059,24.402h7.436v4.837l-7.436,1.112V24.402z"/>
</g>
</svg>
